<?xml version="1.0" encoding="UTF-8" standalone="no"?>
<svg
   xmlns:dc="http://purl.org/dc/elements/1.1/"
   xmlns:cc="http://creativecommons.org/ns#"
   xmlns:rdf="http://www.w3.org/1999/02/22-rdf-syntax-ns#"
   xmlns:svg="http://www.w3.org/2000/svg"
   xmlns="http://www.w3.org/2000/svg"
   xmlns:sodipodi="http://sodipodi.sourceforge.net/DTD/sodipodi-0.dtd"
   xmlns:inkscape="http://www.inkscape.org/namespaces/inkscape"
   width="265mm"
   height="160mm"
   viewBox="0 0 265 160"
   version="1.1"
   id="svg8"
   inkscape:version="1.0 (4035a4fb49, 2020-05-01)"
   sodipodi:docname="shvainokaras_icon.svg">
  <defs
     id="defs2">
    <inkscape:path-effect
       lpeversion="0"
       is_visible="true"
       id="path-effect3963"
       effect="spiro" />
  </defs>
  <sodipodi:namedview
     width="296mm"
     units="mm"
     id="base"
     pagecolor="#ffffff"
     bordercolor="#666666"
     borderopacity="1.0"
     inkscape:pageopacity="0.0"
     inkscape:pageshadow="2"
     inkscape:zoom="0.5"
     inkscape:cx="736.43293"
     inkscape:cy="639.33606"
     inkscape:document-units="mm"
     inkscape:current-layer="layer1"
     showgrid="false"
     inkscape:window-width="1920"
     inkscape:window-height="1017"
     inkscape:window-x="-8"
     inkscape:window-y="-8"
     inkscape:window-maximized="1"
     showguides="true"
     inkscape:guide-bbox="true"
     inkscape:document-rotation="0" />
  <metadata
     id="metadata5">
    <rdf:RDF>
      <cc:Work
         rdf:about="">
        <dc:format>image/svg+xml</dc:format>
        <dc:type
           rdf:resource="http://purl.org/dc/dcmitype/StillImage" />
        <dc:title></dc:title>
      </cc:Work>
    </rdf:RDF>
  </metadata>
  <g
     inkscape:label="Layer 1"
     inkscape:groupmode="layer"
     id="layer1">
    <g
       id="g37"
       transform="matrix(0.35720565,0.84532234,-0.96105385,0.35118837,223.0556,-76.054519)"
       style="fill:none;fill-opacity:1;stroke:#000000;stroke-width:6.19563;stroke-linecap:butt;stroke-linejoin:round;stroke-miterlimit:4;stroke-dasharray:none;stroke-opacity:1;paint-order:normal">
      <g
         transform="matrix(1.125964,-0.42373792,0.52890964,1.1774251,-58.75563,15.055973)"
         inkscape:label="Layer 1"
         id="layer1-8"
         style="fill:none;fill-opacity:1;stroke:#000000;stroke-width:4.97668;stroke-linecap:butt;stroke-linejoin:round;stroke-miterlimit:4;stroke-dasharray:none;stroke-opacity:1;paint-order:normal">
        <path
           style="fill:none;fill-opacity:1;stroke:#000000;stroke-width:4.97668;stroke-linecap:butt;stroke-linejoin:round;stroke-miterlimit:4;stroke-dasharray:none;stroke-opacity:1;paint-order:normal"
           d="m 27.626498,166.96791 c 20.390316,30.38675 18.487326,46.88809 16.208807,63.15554 3.859448,-0.35464 7.579199,-1.03404 13.723286,3.92258 l 0.468971,-28.42711 c 1.761984,5.99779 -2.510286,17.8872 6.371761,16.76591 6.315957,-6.08169 4.426885,-10.22371 18.349186,-24.96159 14.792293,-12.15447 24.974111,-9.46824 47.143111,-28.60924 19.86885,-11.05685 27.81585,-28.78711 32.01831,-38.0544 -1.581,-11.083 -7.63469,-20.52857 -16.33747,-29.0043 -14.53868,-4.082307 -28.79954,-7.29773 -40.40265,-2.220665 -38.014715,8.752755 -59.581354,25.069025 -67.769275,47.537385 -4.859977,-0.77936 -9.975494,-2.00439 -15.941645,-4.71283 -1.744185,4.18024 0.5389,9.21431 2.212064,14.11907 -11.826686,3.39264 -15.582829,-0.64727 -22.3044454,-1.95612 4.6981248,14.10084 15.9401104,12.14178 26.2599894,12.44577 z"
           id="path244"
           inkscape:connector-curvature="0"
           sodipodi:nodetypes="ccccccccccccccc" />
        <path
           style="fill:none;fill-opacity:1;stroke:#000000;stroke-width:4.97668;stroke-linecap:butt;stroke-linejoin:round;stroke-miterlimit:4;stroke-dasharray:none;stroke-opacity:1;paint-order:normal"
           d="m 23.670954,156.47826 c 11.044715,10.39875 20.26533,8.92017 29.357235,6.60355 0.261523,-7.60449 -4.306258,-12.4052 -15.627654,-16.00979"
           id="path246"
           inkscape:connector-curvature="0"
           sodipodi:nodetypes="ccc" />
        <path
           style="fill:none;fill-opacity:1;stroke:#000000;stroke-width:4.97668;stroke-linecap:butt;stroke-linejoin:round;stroke-miterlimit:4;stroke-dasharray:none;stroke-opacity:1;paint-order:normal"
           d="m 145.57246,101.7553 c 4.70802,-15.708783 6.85094,-21.014518 24.00055,-29.510404 6.39868,10.959751 -7.20135,29.052204 -1.99291,37.789304 5.31971,8.92376 23.06953,3.90071 34.98114,20.24739 -14.82712,7.97144 -23.18087,8.67466 -40.65131,0.47801"
           id="path3951"
           inkscape:connector-curvature="0"
           sodipodi:nodetypes="ccscc" />
        <path
           style="fill:none;fill-opacity:1;stroke:#000000;stroke-width:4.97668;stroke-linecap:butt;stroke-linejoin:round;stroke-miterlimit:4;stroke-dasharray:none;stroke-opacity:1;paint-order:normal"
           d="m 45.122634,177.6046 c 0.493629,-0.15315 1.014425,-0.21829 1.530568,-0.19144 0.876431,0.0456 1.736963,0.36119 2.435058,0.89304 0.698096,0.53186 1.230809,1.27774 1.507427,2.11062 0.276618,0.83288 0.295973,1.74926 0.05477,2.59308 -0.241204,0.84382 -0.741948,1.61152 -1.416964,2.17238 -0.995497,0.82714 -2.368606,1.18 -3.639548,0.93528 -1.270942,-0.24471 -2.414847,-1.08222 -3.032024,-2.21988 -0.617176,-1.13766 -0.695547,-2.55322 -0.207728,-3.75206 0.487818,-1.19884 1.532281,-2.1575 2.768441,-2.54102 z"
           id="path3961"
           inkscape:connector-curvature="0"
           inkscape:path-effect="#path-effect3963"
           inkscape:original-d="m 45.122634,177.6046 c -1.370369,-2.52558 1.020441,-0.12794 1.530568,-0.19144 0.510123,-0.0635 1.720262,5.1791 2.580291,7.76912 0.86003,2.59001 -2.740504,-5.0521 -4.110859,-7.57768 z" />
        <path
           style="fill:none;fill-opacity:1;stroke:#000000;stroke-width:4.97668;stroke-linecap:butt;stroke-linejoin:round;stroke-miterlimit:4;stroke-dasharray:none;stroke-opacity:1;paint-order:normal"
           d="m 125.58988,97.124465 c -0.55272,-4.890627 -1.28924,-9.626406 4.78438,-20.099542 -18.68814,-3.062526 -38.992963,0.266811 -67.469171,11.349143 -2.894653,8.358155 -0.591721,16.537494 5.649265,24.581334"
           id="path3969"
           inkscape:connector-curvature="0"
           sodipodi:nodetypes="cccc" />
        <path
           style="fill:none;fill-opacity:1;stroke:#000000;stroke-width:4.97668;stroke-linecap:butt;stroke-linejoin:round;stroke-miterlimit:4;stroke-dasharray:none;stroke-opacity:1;paint-order:normal"
           d="m 123.35178,173.97956 c 1.05271,2.38124 3.25322,4.02547 9.37851,3.14963 0.56021,7.02124 -0.6139,13.42466 -6.84722,18.02587 -8.8414,-0.73581 -16.4936,-2.93501 -19.91168,-10.34454"
           id="path3971"
           inkscape:connector-curvature="0"
           sodipodi:nodetypes="cccc" />
      </g>
    </g>
  </g>
</svg>
